<svg width="180" height="180" viewBox="0 0 180 180" fill="none" xmlns="http://www.w3.org/2000/svg">
<g clip-path="url(#clip0_1_2)">
<path d="M58.75 36.4638L47.5 40.8388L29.375 62.0888L18.125 88.9638L23.125 102.089C26.2635 111.567 31.9327 120.047 41.25 127.089L47.5 118.756C47.5 118.756 57.0545 138.03 74.346 141.155C74.346 141.155 100 145.995 113.333 138.964C121.884 134.455 124.375 127.922 124.375 127.922L132.917 119.38L136.875 125.214L142.083 125.005L155.625 106.88L160 93.3388L159.583 82.0888L153.75 68.3388L141.667 49.797C141.667 49.797 135 37.5053 121.25 40.0053C121.25 40.0053 105 27.922 91.6667 29.797C78.3335 31.672 80.2082 26.672 58.75 36.4638Z" fill="#F4AA41"/>
<path d="M90 118.13L82.2917 124.172H76.0418L75.8333 133.755L77.7083 142.505L80.4167 147.297L87.5 151.047L98.9583 149.589L102.917 145.214L105.417 134.589L104.792 124.589L99.7917 125.214L90 118.13Z" fill="#EA5A47"/>
<path d="M81.25 92.297L77.2917 101.672L82.7083 104.797L85.8333 106.047L96.6667 106.464L103.958 100.839L99.5833 92.7137L81.25 92.297Z" fill="#3F3F3F"/>
<path d="M73.7647 75.272C73.7647 75.272 69.252 78.378 66.8937 76.9417C64.5352 75.5055 63.7877 72.429 65.224 70.0707C66.6602 67.7125 69.7365 66.9647 72.095 68.401C74.4535 69.8372 73.7647 75.272 73.7647 75.272Z" fill="black"/>
<path d="M82.7722 92.515H98.1365C99.1392 92.515 100.045 93.1143 100.437 94.0373L103.332 100.849L97.884 103.713C96.345 104.522 94.4705 103.551 94.2422 101.828" stroke="black" stroke-width="2" stroke-miterlimit="10" stroke-linecap="round" stroke-linejoin="round"/>
<path d="M86.9015 101.908C86.6185 103.475 84.9622 104.381 83.4897 103.775L77.7067 101.395L80.4315 94.1365C80.7977 93.1613 81.7302 92.515 82.772 92.515" stroke="black" stroke-width="2" stroke-miterlimit="10" stroke-linecap="round" stroke-linejoin="round"/>
<path d="M76.091 125.067C76.091 125.067 74.2943 147.051 83.609 149.911C90.2238 151.942 96.4833 151.242 98.7653 149.286C100.953 147.411 105.346 138.101 103.332 125.067" stroke="black" stroke-width="2" stroke-miterlimit="10" stroke-linecap="round" stroke-linejoin="round"/>
<path d="M110.659 75.2721C110.659 75.2721 115.172 78.3781 117.53 76.9418C119.889 75.5056 120.636 72.4291 119.2 70.0708C117.764 67.7123 114.687 66.9648 112.329 68.4011C109.97 69.8373 110.659 75.2721 110.659 75.2721Z" fill="black"/>
<path d="M64.0612 107.098C62.8737 116.104 69.647 121.475 74.773 124.202C77.765 125.794 81.4 125.497 84.067 123.407L90.5195 118.348L96.972 123.407C99.6392 125.497 103.274 125.794 106.266 124.202C111.392 121.475 118.165 116.104 116.978 107.098" stroke="black" stroke-width="2" stroke-miterlimit="10" stroke-linecap="round" stroke-linejoin="round"/>
<path d="M49.8772 70.893C44.0857 83.7923 48.6062 103.455 50.1747 109.333C50.4797 110.476 50.3635 111.672 49.857 112.741L44.8885 123.225C43.331 126.511 38.905 127.108 36.561 124.327C28.5807 114.859 15.165 95.8523 20.1895 82.612C37.8457 36.086 59.8587 37.2548 59.8587 37.2548C66.972 32.4208 92.6192 19.911 121.89 39.4423C121.89 39.4423 143.471 35.1485 159.234 81.786C163.743 95.1265 150.659 113.953 142.857 123.397C140.529 126.214 136.067 125.631 134.501 122.329L129.566 111.915C129.06 110.846 128.943 109.65 129.248 108.507C130.817 102.63 135.337 82.9665 129.546 70.067" stroke="black" stroke-width="2" stroke-miterlimit="10" stroke-linecap="round" stroke-linejoin="round"/>
<path d="M131.577 116.157C131.577 116.157 123.882 132.961 112.065 136.835" stroke="black" stroke-width="2" stroke-miterlimit="10" stroke-linecap="round" stroke-linejoin="round"/>
<path d="M48.5925 117.422C48.5925 117.422 56.2877 132.628 68.1047 136.502" stroke="black" stroke-width="2" stroke-miterlimit="10" stroke-linecap="round" stroke-linejoin="round"/>
<path d="M90.5195 118.348V110.773" stroke="black" stroke-width="2" stroke-miterlimit="10" stroke-linecap="round" stroke-linejoin="round"/>
</g>
<defs>
<clipPath id="clip0_1_2">
<rect width="180" height="180" fill="white"/>
</clipPath>
</defs>
</svg>
